{"title":"Spotlight 2015 DVDScr XVID AC3 HQ Hive-CM8","uid":13084040,"size":1818956087,"categoryP":"video","categoryS":"movies","magnet":"?xt=urn:btih:3c8e31493f8a1e31c6b90d3c782c157ada409f2d&amp;dn=Spotlight+2015+DVDScr+XVID+AC3+HQ+Hive-CM8&amp;tr=udp%3A%2F%2Ftracker.leechers-paradise.org%3A6969&amp;tr=udp%3A%2F%2Fzer0day.ch%3A1337&amp;tr=udp%3A%2F%2Fopen.demonii.com%3A1337&amp;tr=udp%3A%2F%2Ftracker.coppersurfer.tk%3A6969&amp;tr=udp%3A%2F%2Fexodus.desync.com%3A6969","seeders":11,"leechers":2,"uploader":"makintos13","files":3,"time":1450941992,"description":"screens:\r\n \nhttp://imgmak.com/Kuv\r\n \nhttp://imgmak.com/Kuy\r\n \nhttp://imgmak.com/Ku6\r\n \nhttp://imgmak.com/Ku9\r\n \nhttp://imgmak.com/KuM\r\n \nhttp://imgmak.com/KuO\r\n\r\nGeneral\r\nComplete name                  : Spotlight.2015.DVDScr.XVID.AC3.HQ.Hive-CM8.avi\r\nFormat                         : AVI\r\nFormat/Info                    : Audio Video Interleave\r\nFile size                      : 1.69 GiB\r\nDuration                       : 2h 8mn\r\nOverall bit rate               : 1 878 Kbps\r\nWriting application            : Nandub v1.0rc2\r\nWriting library                : Nandub build 1853/release\r\n\r\nVideo\r\nID                             : 0\r\nFormat                         : MPEG-4 Visual\r\nFormat profile                 : Advanced   \r\nFormat settings, BVOP          : 2\r\nFormat settings, QPel          : Yes\r\nFormat settings, GMC           : No warppoints\r\nFormat settings, Matrix        : Default (H.263)\r\nMuxing mode                    : Packed bitstream\r\nCodec ID                       : XVID\r\nCodec ID/Hint                  : XviD\r\nDuration                       : 2h 8mn\r\nBit rate                       : 1 610 Kbps\r\nWidth                          : 720 pixels\r\nHeight                         : 384 pixels\r\nDisplay aspect ratio           : 1.85:1\r\nFrame rate                     : 29.970 fps\r\nColor space                    : YUV\r\nChroma subsampling             : 4:2:0\r\nBit depth                      : 8 bits\r\nScan type                      : Progressive\r\nCompression mode               : Lossy\r\nBits/(Pixel*Frame)             : 0.194\r\nStream size                    : 1.45 GiB (86%)\r\nWriting library                : XviD 1.2.1 (UTC 2008-12-04)\r\n\r\nAudio\r\nID                             : 1\r\nFormat                         : AC-3\r\nFormat/Info                    : Audio Coding 3\r\nMode extension                 : CM (complete main)\r\nFormat settings, Endianness    : Big\r\nCodec ID                       : 2000\r\nDuration                       : 2h 8mn\r\nBit rate mode                  : Constant\r\nBit rate                       : 256 Kbps\r\nChannel(s)                     : 2 channels\r\nChannel positions              : Front: L R\r\nSampling rate                  : 48.0 KHz\r\nBit depth                      : 16 bits\r\nCompression mode               : Lossy\r\nDelay relative to video        : 14ms\r\nStream size                    : 235 MiB (14%)\r\nAlignment                      : Split accross interleaves\r\nInterleave, duration           : 33 ms (1.00 video frame)\r\nInterleave, preload duration   : 500 ms","torrent":{"xt":"urn:btih:3c8e31493f8a1e31c6b90d3c782c157ada409f2d","amp;dn":"Spotlight+2015+DVDScr+XVID+AC3+HQ+Hive-CM8","amp;tr":["udp%3A%2F%2Ftracker.leechers-paradise.org%3A6969","udp%3A%2F%2Fzer0day.ch%3A1337","udp%3A%2F%2Fopen.demonii.com%3A1337","udp%3A%2F%2Ftracker.coppersurfer.tk%3A6969","udp%3A%2F%2Fexodus.desync.com%3A6969"],"infoHash":"3c8e31493f8a1e31c6b90d3c782c157ada409f2d","infoHashBuffer":{"type":"Buffer","data":[60,142,49,73,63,138,30,49,198,185,13,60,120,44,21,122,218,64,159,45]},"announce":[],"urlList":[]}}